<svg viewBox="609.6 11.6 142.5 142.5" width="142" height="142" xmlns="http://www.w3.org/2000/svg">
  <style>
    .fd-paper { fill: #ffebc6 }
    .fd-roll  { fill: #928875 }
    .fd-hub   { fill: #ffebc6 }
    .fd-arrow { fill: #231f20 }
    .fd-arc   { fill: none; stroke: #fff; stroke-linecap: round; stroke-miterlimit: 1.7; stroke-width: 1.3 }
  </style>
  <g transform="translate(1362.2,0) scale(-1,1)">
    <path class="fd-paper" d="M691.4,129.6l24-24c7.4-7.4,7.4-19.5,0-27-7.4-7.4-19.5-7.4-27,0l-24,24"/>
    <circle class="fd-roll" cx="677.9" cy="116.2" r="19.1"/>
    <circle class="fd-hub"  cx="677.9" cy="116.2" r="5.4"/>
    <g class="motion-f1">
      <path class="fd-arc" d="M666.2,116.2c0-6.5,5.2-11.7,11.7-11.7"/>
      <path class="fd-arc" d="M689.6,116.2c0,6.5-5.2,11.7-11.7,11.7"/>
    </g>
    <g class="motion-f2">
      <path class="fd-arc" d="M669,116.2c0-4.9,3.9-8.9,8.9-8.9"/>
      <path class="fd-arc" d="M686.8,116.2c0,4.9-3.9,8.9-8.9,8.9"/>
    </g>
    <polygon class="fd-paper" points="679.9 97.1 608.3 97.1 608.3 73.1 703.9 73.1 679.9 97.1"/>
    <g class="press-fa" transform="rotate(90,662,85.2)">
      <polygon class="fd-arrow" points="655.8 76.9 648.4 88 643.8 88 638.3 93.5 635.7 93.5 641.2 88 635.7 88 655.8 76.9"/>
      <polygon class="fd-arrow" points="672.7 76.9 665.2 88 660.7 88 655.1 93.5 652.5 93.5 658.1 88 652.5 88 672.7 76.9"/>
      <polygon class="fd-arrow" points="689.5 76.9 682 88 677.5 88 671.9 93.5 669.3 93.5 674.9 88 669.3 88 689.5 76.9"/>
    </g>
    <g class="press-fb" transform="rotate(90,662,85.2)">
      <polygon class="fd-arrow" points="664.2 76.9 656.8 88 652.2 88 646.7 93.5 644.1 93.5 649.6 88 644.1 88 664.2 76.9"/>
      <polygon class="fd-arrow" points="681.1 76.9 673.6 88 669.1 88 663.5 93.5 660.9 93.5 666.5 88 660.9 88 681.1 76.9"/>
    </g>
  </g>
</svg>
